<svg xmlns="http://www.w3.org/2000/svg" viewBox="0 0 460 460" width="512" height="512" enable-background="new 0 0 460 460"><g><path d="M450 382.5h-440c-5.523 0-10-4.477-10-10v-300c0-5.523 4.477-10 10-10h440c5.523 0 10 4.477 10 10v300c0 5.523-4.477 10-10 10z" fill="#798751"/><path d="M250 382.5h-40v-320h40v320z" fill="#283215"/><path d="M440 302.5v50c0 5.523-4.477 10-10 10h-170c-16.569 0-30-13.431-30-30 0 16.569-13.431 30-30 30h-170c-5.523 0-10-4.477-10-10v-50h180c16.569 0 30 13.431 30 30 0-16.568 13.431-30 30-30h180z" fill="#ACA082"/><path d="M440 42.5v290h-420v-290c0-5.523 4.477-10 10-10h170c16.569 0 30 13.431 30 30 0-16.569 13.431-30 30-30h170c5.523 0 10 4.477 10 10z" fill="#D5C9AB"/><path d="M415 72.5h-120c-2.761 0-5-2.239-5-5s2.239-5 5-5h120c2.761 0 5 2.239 5 5s-2.239 5-5 5zm5 15c0-2.761-2.239-5-5-5h-120c-2.761 0-5 2.239-5 5s2.239 5 5 5h120c2.761 0 5-2.239 5-5zm0 20c0-2.761-2.239-5-5-5h-160c-2.761 0-5 2.239-5 5s2.239 5 5 5h160c2.761 0 5-2.239 5-5zm-20 40c0-2.761-2.239-5-5-5h-140c-2.761 0-5 2.239-5 5s2.239 5 5 5h140c2.761 0 5-2.239 5-5zm20 20c0-2.761-2.239-5-5-5h-160c-2.761 0-5 2.239-5 5s2.239 5 5 5h160c2.761 0 5-2.239 5-5zm-10 20c0-2.761-2.239-5-5-5h-150c-2.761 0-5 2.239-5 5s2.239 5 5 5h150c2.761 0 5-2.239 5-5zm10 20c0-2.761-2.239-5-5-5h-160c-2.761 0-5 2.239-5 5s2.239 5 5 5h160c2.761 0 5-2.239 5-5zm-20 20c0-2.761-2.239-5-5-5h-140c-2.761 0-5 2.239-5 5s2.239 5 5 5h140c2.761 0 5-2.239 5-5zm20 20c0-2.761-2.239-5-5-5h-160c-2.761 0-5 2.239-5 5s2.239 5 5 5h160c2.761 0 5-2.239 5-5zm-10 20c0-2.761-2.239-5-5-5h-150c-2.761 0-5 2.239-5 5s2.239 5 5 5h150c2.761 0 5-2.239 5-5zm-130-180v-20c0-2.761-2.239-5-5-5h-20c-2.761 0-5 2.239-5 5v20c0 2.761 2.239 5 5 5h20c2.761 0 5-2.239 5-5zm135 215h-10c-2.761 0-5 2.239-5 5s2.239 5 5 5h10c2.761 0 5-2.239 5-5s-2.239-5-5-5z" fill="#B2AA92"/><path d="M310 352.5c-33.137 0-60-2.239-60-5s26.863-5 60-5 60 2.239 60 5-26.863 5-60 5z" fill="#958B71"/><path d="M340 427.5l-30-10-30 10v-76c0-2.209 1.791-4 4-4h52c2.209 0 4 1.791 4 4v76z" fill="#B04230"/><path d="M230 332.5c0 16.569-13.431 30-30 30h-170c-5.523 0-10-4.477-10-10v-50h180c16.569 0 30 13.431 30 30z" fill="#D8C8A7"/><path d="M230 62.5v270h-210v-290c0-5.523 4.477-10 10-10h170c16.569 0 30 13.431 30 30z" fill="#F2E3C0"/><path d="M205 72.5h-120c-2.761 0-5-2.239-5-5s2.239-5 5-5h120c2.761 0 5 2.239 5 5s-2.239 5-5 5zm5 15c0-2.761-2.239-5-5-5h-120c-2.761 0-5 2.239-5 5s2.239 5 5 5h120c2.761 0 5-2.239 5-5zm0 20c0-2.761-2.239-5-5-5h-160c-2.761 0-5 2.239-5 5s2.239 5 5 5h160c2.761 0 5-2.239 5-5zm-20 20c0-2.761-2.239-5-5-5h-140c-2.761 0-5 2.239-5 5s2.239 5 5 5h140c2.761 0 5-2.239 5-5zm20 20c0-2.761-2.239-5-5-5h-160c-2.761 0-5 2.239-5 5s2.239 5 5 5h160c2.761 0 5-2.239 5-5zm-10 20c0-2.761-2.239-5-5-5h-150c-2.761 0-5 2.239-5 5s2.239 5 5 5h150c2.761 0 5-2.239 5-5zm10 40c0-2.761-2.239-5-5-5h-160c-2.761 0-5 2.239-5 5s2.239 5 5 5h160c2.761 0 5-2.239 5-5zm-20 20c0-2.761-2.239-5-5-5h-140c-2.761 0-5 2.239-5 5s2.239 5 5 5h140c2.761 0 5-2.239 5-5zm20 20c0-2.761-2.239-5-5-5h-160c-2.761 0-5 2.239-5 5s2.239 5 5 5h160c2.761 0 5-2.239 5-5zm-10 20c0-2.761-2.239-5-5-5h-150c-2.761 0-5 2.239-5 5s2.239 5 5 5h150c2.761 0 5-2.239 5-5zm-130-180v-20c0-2.761-2.239-5-5-5h-20c-2.761 0-5 2.239-5 5v20c0 2.761 2.239 5 5 5h20c2.761 0 5-2.239 5-5zm-15 215h-10c-2.761 0-5 2.239-5 5s2.239 5 5 5h10c2.761 0 5-2.239 5-5s-2.239-5-5-5z" fill="#CFC4A6"/></g></svg>