<svg width="100" height="100" viewBox="0 0 64 64" xmlns="http://www.w3.org/2000/svg"><defs><style>.cls-1 { fill: #ffffff; } .cls-2 { fill: #ffbc0a; } .cls-3 { fill: #a3cef1; } .cls-4 { fill: #6096ba; } .cls-5 { fill: #274c77; }</style></defs><path class="cls-5" d="M32 59h-3l-2-2h-17v-24h4v18s12.15-3 18 8zM50 51v-18h4v24h-17l-2 2h-3c5.85-11 18-8 18-8z"/><path class="cls-4" d="M32 59c-5.85-11-18-8-18-8v-21l6-2v19c6.63 0 12 5.37 12 12zM44 28l6 2v21s-12.15-3-18 8c0-6.63 5.37-12 12-12v-19z"/><path class="cls-3" d="M32 39c0-6.63-5.37-12-12-12v20c6.63 0 12 5.37 12 12 0-6.63 5.37-12 12-12v-20c-6.63 0-12 5.37-12 12z"/><circle class="cls-2" cx="32" cy="17" r="12"/><path class="cls-1" d="M31 14h2v10h-2zM31 11h2v2h-2z"/></svg>