<svg xmlns="http://www.w3.org/2000/svg" viewBox="0 0 508.609 508.609" enable-background="new 0 0 508.609 508.609"><g fill="#EEB490"><circle cx="163.942" cy="159.364" r="36.959"/><circle cx="344.328" cy="159.364" r="36.959"/></g><circle cx="254.135" cy="115.285" r="115.285" fill="#56545F"/><path d="M338.564 284.821h-168.858c-77.309 0-140.037 62.728-140.037 140.037v83.751h449.271v-83.751c-.339-77.308-63.067-140.037-140.376-140.037z" fill="#9D90C5"/><circle cx="254.135" cy="271.936" r="62.728" fill="#EEB490"/><path d="M330.766 74.257c-10.172 17.971-40.689 31.195-76.63 31.195s-66.458-13.224-76.63-31.195c-11.189 15.597-17.632 34.585-17.632 54.93v69.171c0 52.217 42.384 94.262 94.262 94.262s94.262-42.384 94.262-94.262v-68.832c-.001-20.684-6.443-39.672-17.632-55.269z" fill="#FACCB4"/><path d="M369.081 106.469c-4.747-59.677-54.252-106.469-114.946-106.469s-110.199 46.792-114.946 106.469h229.892z" fill="#F1F3F7"/></svg>