<svg xmlns="http://www.w3.org/2000/svg" viewBox="0 0 508.609 508.609" enable-background="new 0 0 508.609 508.609"><path d="M430.113 339.751l-108.843-13.224h-133.595l-108.842 13.224c-40.689 5.086-71.544 39.672-71.544 80.699v88.159h494.029v-88.159c.339-41.027-30.517-75.952-71.205-80.699z" fill="#DEDEDF"/><path d="M394.849 153.6c0-84.768-63.068-153.6-140.376-153.6s-140.376 68.832-140.376 153.6c0 47.809 20.005 90.532 51.2 118.676 8.477 9.833 24.413 33.907-4.408 58.999l93.584 146.14 93.584-146.14c-28.821-25.091-12.885-49.166-4.408-58.999 31.195-28.144 51.2-70.867 51.2-118.676z" fill="#608287"/><path d="M254.473 293.637c51.539 0 93.584-42.045 93.584-93.584v-59.338c-26.109-19.666-58.66-31.195-93.584-31.195-35.264 0-67.476 11.528-93.584 31.195v59.338c0 51.878 42.045 93.584 93.584 93.584z" fill="#FACCB4"/></svg>