<?xml version="1.0" encoding="utf-8"?>
<!-- Generator: Adobe Illustrator 23.0.2, SVG Export Plug-In . SVG Version: 6.00 Build 0)  -->
<svg version="1.1" id="Layer_1" xmlns="http://www.w3.org/2000/svg" xmlns:xlink="http://www.w3.org/1999/xlink" x="0px" y="0px"
	 viewBox="0 0 612 792" style="enable-background:new 0 0 612 792;" xml:space="preserve">
<style type="text/css">
	.st0{fill:#fff;}
</style>
<g>
	<path class="st0" d="M432.6,359.8c0-77.9,0.2-155.9-0.2-233.8c-0.1-11.7,2.5-20.8,11.5-25.6c-12.8-13-25.4-25.7-38.3-38.8
		c0,93,0,186.4,0,279.8c-5.6,0-10.2,0-15.9,0c0-25.3,0-50.1,0-74.2c-13,8.6-25.5,16.8-37.2,24.6c3.1,4.2,9.3,9.1,10.1,14.8
		c1.7,11.4,0.5,23.3,0.5,34.9c-4.9,0-9,0-13.9,0c0-3.2,0-6,0-8.8c0-66.9,0.1-133.8-0.1-200.7c0-12.7-1.2-25.4,13.6-32.1
		c-8.1-6.5-15.8-11.7-22.2-18.3c-6.3-6.4-11.1-14.3-18-23.3c0,95.8,0,189.5,0,283c-5.9,0-10.7,0-16.3,0c0-30,0-59.4,0-91.3
		c-7,11.6-15.9,14.4-26.6,14.9c-16,0.7-29,7.4-35.7,22.7c-6.1,13.9-2.4,28.5-3.1,43.5c13.6,0,26.1,0,38.9,0c0,3.6,0,6.7,0,10.3
		c-17,0-33.4,0-50.5,0c0-25.3,0-50,0-76.3c-12.1,11.2-23.4,20.8-39.3,25c0-8.3,0-15.9,0-22.9c-13.4,8.8-26.4,17.3-36.2,23.8
		c2,2.9,7.4,7.1,7.8,11.8c1.2,12.9,0.4,25.9,0.4,39.2c-31.3,0-61.5,0.2-91.6-0.3c-3.9-0.1-8-3.9-11.6-6.5c-1.7-1.2-2.6-3.6-3.4-4.8
		c-9.1,13.4-18.1,26.6-26.8,39.4c134.3,0,269.1,0,404.4,0C432.6,366,432.6,362.9,432.6,359.8z M279.3,303.7c-3.5,0-6.7,0-12.5,0
		c4.5-4.8,7.7-8.1,10.8-11.5c0.6,0.3,1.2,0.7,1.7,1C279.3,296.4,279.3,299.6,279.3,303.7z M201.3,310.6c-0.5,10.1-0.1,20.3-0.1,30.8
		c-3.8,0-6.9,0-10.5,0c0-15.7,0-31.5,0-47.5C198.7,296.7,201.7,302.3,201.3,310.6z"/>
	<path class="st0" d="M483,359.6c0-75.6,0.2-151.1-0.2-226.7c-0.1-13,1.8-24,15.9-30.8c-19.9-8.6-31.5-24.2-43.6-41.7
		c0,104.5,0,206.7,0,309.2c9.2,0,18,0,27.9,0C483,365.9,483,362.7,483,359.6z"/>
	<path class="st0" d="M352.3,157.5c0,3.1,0,4.9,0,6.7c0,13.2,6,19,19.1,18.4c5.5-0.2,11.1-0.3,16.6,0c7.5,0.4,13-2.8,15.2-9.6
		c1.5-4.7,0.9-10,1.2-15.1c-5.4,0-9.7,0-13.5,0c-0.8,3.8-1.5,7-2.2,10.1c-0.8-0.1-1.6-0.1-2.4-0.2c-0.5-3.4-1.1-6.7-1.6-9.9
		c-4.7,0-9,0-13.3,0c-0.2,3.8-0.5,7-0.7,10.2c-0.8,0-1.5,0-2.3,0c-0.3-3.4-0.7-6.9-1.1-10.7c-2.8,0-5.1,0-7.5,0
		C357.5,157.5,355.1,157.5,352.3,157.5z"/>
	<path class="st0" d="M216.9,416.2c0.3,5.4,5.9,10.5,11.6,10.5c6.4,0.1,10.3-4.1,10.3-10.9c0-6.1-3.9-9.6-10.6-9.5
		C221.2,406.4,216.6,410.4,216.9,416.2z"/>
	<path class="st0" d="M262.2,240.9c7.5,0,11.2-3.2,11.4-9.2c0.1-6.2-4.9-11.3-11.1-11.2c-5.3,0.1-11.5,6.1-10.7,11.3
		C252.6,237.8,255.6,242,262.2,240.9z"/>
	<path class="st0" d="M352.5,247.2c0.6,6,3.5,10.3,10.3,9.4c7.9,0,11.4-3.2,11.6-9.6c0.2-7.1-4.8-9.5-10.1-10.5
		C358.7,235.4,351.9,241.8,352.5,247.2z"/>
	<path class="st0" d="M215.1,415.7c-0.7-6-3.6-10.2-10.3-9.3c-7.8,0-11.6,3.2-11.5,9.6c0,5.2,5.7,10.8,11,10.8
		C209.6,426.7,215.7,420.9,215.1,415.7z"/>
	<path class="st0" d="M286.6,240.9c6.3,0.3,10.4-1.9,10.6-9c0.1-6.7-3.9-11.6-9.7-11.4c-6.9,0.2-10.6,3.7-10.7,10.2
		C276.6,238.8,278.5,240.8,286.6,240.9z"/>
	<path class="st0" d="M117.5,256.7c7.1,0,11-3.4,11.2-9.9c0.1-4.7-6-10.7-10.7-10.4c-5.8,0.3-11.3,5.5-11.3,10.9
		C106.7,252.9,110.9,256.6,117.5,256.7z"/>
	<path class="st0" d="M387.5,236.5c-5.2,0.9-10.6,2.3-10.1,10c0.6,7.8,2.6,10.1,11.5,10.1c7.2,1.1,9-3.6,9-9.7
		C397.9,240.5,393.4,235.5,387.5,236.5z"/>
	<path class="st0" d="M568.3,251.2c-6.3-6.5-11.1-14.3-18.1-23.5c0,95.9,0,189.6,0,283.2c-6.4,0-11.7,0-16.9,0
		c-0.3-0.8-0.4-1-0.4-1.3c-0.1-74-0.3-148,0.2-222c0-5.2,5.6-10.4,8.8-15.5c0.7-1.1,2-1.9,2.2-2c-12.9-13.4-25.3-26.4-37.9-39.4
		c0,92.8,0,186.4,0,280.2c-5.9,0-10.7,0-16.2,0c3.8-26.4-16.6-37.1-31.9-52.5c-2.4,4.5-3.6,8.7-6.3,11.5c-2.9,3-7.7,4.2-10.8,7.1
		c-5.3,5-11.1,10.2-14.5,16.5c-2.6,4.8-1.9,11.5-2.7,17.4c-3.6,0-6.8,0-10.8,0c0-25.2,0-49.9,0-75.9c-6.8,5.6-12.2,10.7-18.3,14.8
		c-6.1,4-12.8,7-20.9,11.3c0-9.6,0-17.3,0-24.7c-13.2,8.9-25.9,17.4-38.2,25.6c3.1,3.3,9,6.8,9.4,10.8c1.3,12.6,0.5,25.4,0.5,38.6
		c-31.5,0-61.9,0.2-92.3-0.3c-3.4-0.1-7-3.6-10-6c-2-1.6-3.2-4.3-4.3-5.8c-8.9,13.5-17.6,26.6-26.2,39.8c121,0,242.4,0,364.3,0
		c0-3.7,0-6.8,0-10c0-78.7,0-157.4,0-236.2c0-9.4,2.2-17.4,11.2-22.1c0.7-0.4,1-1.6,1.4-2.2C582.1,262.7,574.5,257.6,568.3,251.2z
		 M374.2,510.8c0-15.4,0-31,0-48.6c20.1,13,8.6,32.4,12.9,48.6C382.3,510.8,378.5,510.8,374.2,510.8z M457.5,510.9
		c-2-0.4-4.3-3.7-4.6-5.9c-0.2-1.3,3.5-4.5,5.2-4.3c2.2,0.2,4.1,3,7.3,5.6C461.9,508.6,459.4,511.3,457.5,510.9z"/>
	<path class="st0" d="M544.1,270.1C544.1,270.1,544.1,270.2,544.1,270.1C544.2,270.1,544.1,270.1,544.1,270.1z"/>
	<path class="st0" d="M386.5,576c-7,0-10.9,3.4-11.2,9.8c-0.2,4.9,6,10.8,11.2,10.6c5-0.1,10.8-5.6,10.8-10.3
		C397.3,579.7,393.4,576,386.5,576z"/>
	<path class="st0" d="M411.3,576c-7.4-0.1-11.8,3.1-12.2,9c-0.4,5.7,5.2,11.3,11.4,11.4c6.3,0.1,10.4-4.1,10.4-12.7
		C420.6,579.5,417.7,576,411.3,576z"/>
	<path class="st0" d="M276.3,417c0.1,5.8,4.4,9.4,10.8,9.4c7.3,0.3,11-2.5,11-9.4c0-6.7-3.9-10.9-10.1-11
		C282,405.9,276.3,411.3,276.3,417z"/>
	<path class="st0" d="M301.3,417c0,7.1,3.9,9.6,10.8,9.3c6.5,0.8,9.5-1.8,9.9-9.1c0.4-7.4-3.7-10-9.3-10.9
		C306.7,405.2,301.3,410.9,301.3,417z"/>
</g>
</svg>
