<?xml version="1.0" encoding="iso-8859-1"?>
<!-- Generator: Adobe Illustrator 19.0.0, SVG Export Plug-In . SVG Version: 6.00 Build 0)  -->
<svg version="1.1" id="Layer_1" xmlns="http://www.w3.org/2000/svg" xmlns:xlink="http://www.w3.org/1999/xlink" x="0px" y="0px"
	 viewBox="0 0 512 512" style="enable-background:new 0 0 512 512;" xml:space="preserve">
<path style="fill:#F4F4F4;" d="M489.791,239.728C504.527,216.843,512,192.113,512,166.223c0-43.632-21.55-84.527-60.682-115.151
	c-38.55-30.171-89.695-46.787-144.011-46.787c-54.317,0-105.461,16.616-144.012,46.787c-39.131,30.624-60.681,71.519-60.681,115.151
	s21.55,84.527,60.681,115.151c38.551,30.171,89.695,46.787,144.012,46.787c14.66,0,29.29-1.235,43.537-3.672l114.369,79.206
	c3.061,2.119,7.299,1.813,10.025-0.72c2.387-2.219,3.193-5.769,2.001-8.803L436.921,291.61
	C458.8,277.431,476.993,259.598,489.791,239.728z"/>
<path style="fill:#E9E9E9;" d="M143.766,157.672c0-57.154,33.063-108.068,84.578-140.956c-23.989,7.918-46.05,19.487-65.05,34.355
	c-39.131,30.625-60.681,71.52-60.681,115.152s21.55,84.527,60.681,115.151c35.621,27.877,81.996,44.17,131.689,46.487
	C207.069,303.906,143.766,236.761,143.766,157.672z"/>
<path style="fill:#FF8C78;" d="M379.301,137.675l-68.409-34.205c-2.256-1.13-4.915-1.13-7.171,0l-68.409,34.205
	c-2.716,1.359-4.432,4.133-4.432,7.17V256.01c0,4.428,3.589,8.017,8.017,8.017h51.307c4.428,0,8.017-3.588,8.017-8.017v-51.841
	h18.171v51.841c0,4.428,3.588,8.017,8.017,8.017h51.307c4.428,0,8.017-3.588,8.017-8.017V144.845
	C383.733,141.808,382.017,139.032,379.301,137.675z"/>
<g>
	<path style="fill:#DF7A6E;" d="M235.313,137.675c-2.716,1.359-4.432,4.133-4.432,7.17V256.01c0,4.428,3.589,8.017,8.017,8.017
		h25.215V123.275L235.313,137.675z"/>
	<path style="fill:#DF7A6E;" d="M401.362,135.761c-1.298,0.001-2.612-0.315-3.832-0.98l-90.223-49.213l-90.224,49.213
		c-3.886,2.121-8.756,0.687-10.876-3.198c-2.121-3.888-0.688-8.756,3.199-10.877l94.063-51.307c2.394-1.305,5.284-1.305,7.679,0
		l94.063,51.307c3.886,2.12,5.319,6.989,3.198,10.877C406.952,134.249,404.201,135.761,401.362,135.761z"/>
</g>
<path style="fill:#F4F4F4;" d="M232.484,200.962H40.084C17.981,200.962,0,218.943,0,241.046v158.196
	c0,22.103,17.981,40.084,40.084,40.084h33.326l-21.592,57.577c-1.111,2.961-0.339,6.38,1.935,8.577
	c2.681,2.59,6.916,2.978,10.019,0.909l100.595-67.062h68.118c22.103,0,40.083-17.981,40.083-40.084V241.046
	C272.568,218.943,254.587,200.962,232.484,200.962z"/>
<path style="fill:#E9E9E9;" d="M74.003,439.325c-22.103,0-40.084-17.981-40.084-40.084V241.046
	c0-22.103,17.981-40.084,40.084-40.084H40.084C17.981,200.962,0,218.943,0,241.046v158.196c0,22.103,17.981,40.084,40.084,40.084
	h33.326"/>
<g>
	<path style="fill:#6DDAE1;" d="M137.353,295.025h-2.138c-13.262,0-24.05,10.789-24.05,24.05v61.996
		c0,13.261,10.788,24.05,24.05,24.05h2.138c13.262,0,24.05-10.789,24.05-24.05v-61.996
		C161.403,305.814,150.615,295.025,137.353,295.025z"/>
	<path style="fill:#6DDAE1;" d="M136.284,285.405c13.851,0,25.119-11.268,25.119-25.119s-11.268-25.119-25.119-25.119
		c-13.851,0-25.119,11.268-25.119,25.119S122.433,285.405,136.284,285.405z"/>
</g>
<g>
</g>
<g>
</g>
<g>
</g>
<g>
</g>
<g>
</g>
<g>
</g>
<g>
</g>
<g>
</g>
<g>
</g>
<g>
</g>
<g>
</g>
<g>
</g>
<g>
</g>
<g>
</g>
<g>
</g>
</svg>
